<svg width="30" height="30" viewBox="0 0 30 30" fill="none" xmlns="http://www.w3.org/2000/svg">
<path fill-rule="evenodd" clip-rule="evenodd" d="M22.5015 13.4375V19.6875L24.114 21.3C24.9015 22.0875 24.339 23.4375 23.2265 23.4375H6.76403C5.65153 23.4375 5.10153 22.0875 5.88903 21.3L7.50153 19.6875V13.4375C7.50153 9.5875 9.53903 6.3875 13.1265 5.5375V4.6875C13.1265 3.65 13.964 2.8125 15.0015 2.8125C16.039 2.8125 16.8765 3.65 16.8765 4.6875V5.5375C20.4515 6.3875 22.5015 9.6 22.5015 13.4375ZM17.5015 24.6875C17.5015 26.0625 16.3765 27.1875 15.0015 27.1875C13.614 27.1875 12.5015 26.0625 12.5015 24.6875H17.5015Z" fill="#322F8B"/>
</svg>
