<svg width="129" height="19" viewBox="0 0 129 19" fill="none" xmlns="http://www.w3.org/2000/svg">
<path d="M13.7695 2.78906H8.28516V18H6.04688V2.78906H0.574219V0.9375H13.7695V2.78906ZM25.9453 10.1133H18.5508V16.1602H27.1406V18H16.3008V0.9375H27.0234V2.78906H18.5508V8.27344H25.9453V10.1133ZM39.3633 13.5469H32.2148L30.6094 18H28.2891L34.8047 0.9375H36.7734L43.3008 18H40.9922L39.3633 13.5469ZM32.8945 11.6953H38.6953L35.7891 3.71484L32.8945 11.6953ZM48.5039 0.9375L54.082 14.8594L59.6602 0.9375H62.5781V18H60.3281V11.3555L60.5391 4.18359L54.9375 18H53.2148L47.625 4.21875L47.8477 11.3555V18H45.5977V0.9375H48.5039Z" fill="#C13137"/>
<path d="M72.1992 15.0117L77.0742 0.9375H79.5352L73.207 18H71.2148L64.8984 0.9375H67.3477L72.1992 15.0117ZM94.793 10.0195C94.793 11.6914 94.5117 13.1523 93.9492 14.4023C93.3867 15.6445 92.5898 16.5938 91.5586 17.25C90.5273 17.9062 89.3242 18.2344 87.9492 18.2344C86.6055 18.2344 85.4141 17.9062 84.375 17.25C83.3359 16.5859 82.5273 15.6445 81.9492 14.4258C81.3789 13.1992 81.0859 11.7812 81.0703 10.1719V8.94141C81.0703 7.30078 81.3555 5.85156 81.9258 4.59375C82.4961 3.33594 83.3008 2.375 84.3398 1.71094C85.3867 1.03906 86.582 0.703125 87.9258 0.703125C89.293 0.703125 90.4961 1.03516 91.5352 1.69922C92.582 2.35547 93.3867 3.3125 93.9492 4.57031C94.5117 5.82031 94.793 7.27734 94.793 8.94141V10.0195ZM92.5547 8.91797C92.5547 6.89453 92.1484 5.34375 91.3359 4.26562C90.5234 3.17969 89.3867 2.63672 87.9258 2.63672C86.5039 2.63672 85.3828 3.17969 84.5625 4.26562C83.75 5.34375 83.332 6.84375 83.3086 8.76562V10.0195C83.3086 11.9805 83.7188 13.5234 84.5391 14.6484C85.3672 15.7656 86.5039 16.3242 87.9492 16.3242C89.4023 16.3242 90.5273 15.7969 91.3242 14.7422C92.1211 13.6797 92.5312 12.1602 92.5547 10.1836V8.91797ZM109.629 2.78906H104.145V18H101.906V2.78906H96.4336V0.9375H109.629V2.78906ZM121.805 10.1133H114.41V16.1602H123V18H112.16V0.9375H122.883V2.78906H114.41V8.27344H121.805V10.1133ZM125.508 16.8633C125.508 16.4883 125.617 16.1758 125.836 15.9258C126.062 15.6758 126.398 15.5508 126.844 15.5508C127.289 15.5508 127.625 15.6758 127.852 15.9258C128.086 16.1758 128.203 16.4883 128.203 16.8633C128.203 17.2227 128.086 17.5234 127.852 17.7656C127.625 18.0078 127.289 18.1289 126.844 18.1289C126.398 18.1289 126.062 18.0078 125.836 17.7656C125.617 17.5234 125.508 17.2227 125.508 16.8633Z" fill="#322E7C"/>
</svg>
